<?xml version="1.0" encoding="utf-8"?>
<!-- Generator: Adobe Illustrator 22.1.0, SVG Export Plug-In . SVG Version: 6.00 Build 0)  -->
<svg version="1.1" id="Layer_1" xmlns="http://www.w3.org/2000/svg" xmlns:xlink="http://www.w3.org/1999/xlink" x="0px" y="0px"
	 viewBox="0 0 554 400" style="enable-background:new 0 0 554 400;" xml:space="preserve">
<style type="text/css">
	.st0{fill:#D7F7FF;}
	.st1{fill:#0093DD;}
</style>
<title>kiali_logo_darkbkg_1024px</title>
<path class="st0" d="M348.8,5.8c-107.3,0-194.2,87-194.2,194.2s87,194.2,194.2,194.2s194.2-87,194.2-194.2S456.1,5.8,348.8,5.8z
	 M348.8,364.7c-90.9,0-164.7-73.7-164.7-164.7S257.9,35.3,348.8,35.3c90.9,0,164.7,73.7,164.7,164.7c0,0,0,0,0,0
	C513.5,290.9,439.8,364.7,348.8,364.7L348.8,364.7z"/>
<path class="st1" d="M282.1,49.4C199,86.3,161.4,183.6,198.3,266.7c16.6,37.4,46.5,67.3,83.9,83.9c83.2-73.5,91-200.6,17.5-283.7
	C294.1,60.7,288.3,54.9,282.1,49.4z"/>
<path class="st1" d="M154.6,200c-0.1-44.6,15.3-87.9,43.5-122.5c-17.3-7.9-36-12-55-12C69.6,65.5,10,125.7,10,200
	s59.6,134.5,133.1,134.5c19,0,37.7-4.1,55-12C169.9,287.9,154.5,244.6,154.6,200z"/>
</svg>
